<?xml version="1.0" encoding="UTF-8"?>
<svg width="359px" height="45px" viewBox="0 0 359 45" version="1.1" xmlns="http://www.w3.org/2000/svg" xmlns:xlink="http://www.w3.org/1999/xlink">
    <title>42puzzles-logo-landscape</title>
    <g id="Logo" stroke="none" stroke-width="1" fill="none" fill-rule="evenodd">
        <g id="42puzzles-logo-landscape">
            <rect id="Rectangle-Copy-50" fill="#000000" x="0" y="0" width="359" height="45"></rect>
            <rect id="Rectangle-Copy-50" fill="#FFFFFF" x="3" y="3" width="353" height="39"></rect>
            <path d="M97.106,36.38 C97.6733333,36.38 98.1666667,36.1703333 98.586,35.751 C99.0053333,35.3316667 99.215,34.8383333 99.215,34.271 L99.215,34.271 L99.215,28.277 C99.215,28.0796667 99.326,27.981 99.548,27.981 C100.386667,28.0303333 101.077333,28.055 101.62,28.055 C105.246,28.055 108.0025,27.2101667 109.8895,25.5205 C111.7765,23.8308333 112.72,21.3456667 112.72,18.065 C112.72,12.0216667 108.526667,9 100.14,9 C98.1913333,9 96.1686667,9.09866667 94.072,9.296 C93.48,9.34533333 92.9866667,9.60433333 92.592,10.073 C92.1973333,10.5416667 92,11.072 92,11.664 L92,11.664 L92,34.271 C92,34.8383333 92.2096667,35.3316667 92.629,35.751 C93.0483333,36.1703333 93.5416667,36.38 94.109,36.38 L94.109,36.38 L97.106,36.38 Z M100.88,22.69 C100.559333,22.69 100.103,22.6653333 99.511,22.616 C99.3136667,22.5666667 99.215,22.4433333 99.215,22.246 L99.215,22.246 L99.215,15.068 C99.215,14.846 99.3136667,14.7103333 99.511,14.661 C99.955,14.587 100.411333,14.55 100.88,14.55 C104.21,14.55 105.875,15.845 105.875,18.435 C105.875,19.7916667 105.443333,20.84 104.58,21.58 C103.716667,22.32 102.483333,22.69 100.88,22.69 Z" id="P-Copy-4" fill="#000000" fill-rule="nonzero"></path>
            <path d="M140.73,36.38 C144.232667,36.38 146.896667,35.5166667 148.722,33.79 C150.547333,32.0633333 151.46,29.4733333 151.46,26.02 L151.46,26.02 L151.46,11.109 C151.46,10.5416667 151.250333,10.0483333 150.831,9.629 C150.411667,9.20966667 149.918333,9 149.351,9 L149.351,9 L146.243,9 C145.675667,9 145.182333,9.20966667 144.763,9.629 C144.343667,10.0483333 144.134,10.5416667 144.134,11.109 L144.134,11.109 L144.134,26.575 C144.134,28.0056667 143.875,29.0108333 143.357,29.5905 C142.839,30.1701667 141.988,30.46 140.804,30.46 C139.62,30.46 138.769,30.1701667 138.251,29.5905 C137.733,29.0108333 137.474,28.0056667 137.474,26.575 L137.474,26.575 L137.474,11.109 C137.474,10.5416667 137.264333,10.0483333 136.845,9.629 C136.425667,9.20966667 135.932333,9 135.365,9 L135.365,9 L132.109,9 C131.541667,9 131.048333,9.20966667 130.629,9.629 C130.209667,10.0483333 130,10.5416667 130,11.109 L130,11.109 L130,26.02 C130,29.4733333 130.912667,32.0633333 132.738,33.79 C134.563333,35.5166667 137.227333,36.38 140.73,36.38 Z" id="U-Copy-4" fill="#000000" fill-rule="nonzero"></path>
            <path d="M186.131,36.01 C186.698333,36.01 187.191667,35.8003333 187.611,35.381 C188.030333,34.9616667 188.24,34.4683333 188.24,33.901 L188.24,33.901 L188.24,32.199 C188.24,31.6316667 188.030333,31.1383333 187.611,30.719 C187.191667,30.2996667 186.698333,30.09 186.131,30.09 L186.131,30.09 L177.732,30.09 C177.707333,30.09 177.695,30.0776667 177.695,30.053 C177.695,30.0283333 177.701167,30.016 177.7135,30.016 C177.725833,30.016 177.732,30.0036667 177.732,29.979 L177.732,29.979 L187.056,16.622 C187.845333,15.4873333 188.24,14.217 188.24,12.811 L188.24,12.811 L188.24,11.109 C188.24,10.5416667 188.030333,10.0483333 187.611,9.629 C187.191667,9.20966667 186.698333,9 186.131,9 L186.131,9 L171.109,9 C170.541667,9 170.048333,9.20966667 169.629,9.629 C169.209667,10.0483333 169,10.5416667 169,11.109 L169,11.109 L169,12.811 C169,13.3783333 169.209667,13.8716667 169.629,14.291 C170.048333,14.7103333 170.541667,14.92 171.109,14.92 L171.109,14.92 L179.508,14.92 C179.532667,14.92 179.545,14.9323333 179.545,14.957 C179.545,14.9816667 179.538833,14.994 179.5265,14.994 C179.514167,14.994 179.508,15.0063333 179.508,15.031 L179.508,15.031 L170.184,28.388 C169.394667,29.5226667 169,30.793 169,32.199 L169,32.199 L169,33.901 C169,34.4683333 169.209667,34.9616667 169.629,35.381 C170.048333,35.8003333 170.541667,36.01 171.109,36.01 L171.109,36.01 L186.131,36.01 Z" id="Z-Copy-5" fill="#000000" fill-rule="nonzero"></path>
            <path d="M225.131,36.01 C225.698333,36.01 226.191667,35.8003333 226.611,35.381 C227.030333,34.9616667 227.24,34.4683333 227.24,33.901 L227.24,33.901 L227.24,32.199 C227.24,31.6316667 227.030333,31.1383333 226.611,30.719 C226.191667,30.2996667 225.698333,30.09 225.131,30.09 L225.131,30.09 L216.732,30.09 C216.707333,30.09 216.695,30.0776667 216.695,30.053 C216.695,30.0283333 216.701167,30.016 216.7135,30.016 C216.725833,30.016 216.732,30.0036667 216.732,29.979 L216.732,29.979 L226.056,16.622 C226.845333,15.4873333 227.24,14.217 227.24,12.811 L227.24,12.811 L227.24,11.109 C227.24,10.5416667 227.030333,10.0483333 226.611,9.629 C226.191667,9.20966667 225.698333,9 225.131,9 L225.131,9 L210.109,9 C209.541667,9 209.048333,9.20966667 208.629,9.629 C208.209667,10.0483333 208,10.5416667 208,11.109 L208,11.109 L208,12.811 C208,13.3783333 208.209667,13.8716667 208.629,14.291 C209.048333,14.7103333 209.541667,14.92 210.109,14.92 L210.109,14.92 L218.508,14.92 C218.532667,14.92 218.545,14.9323333 218.545,14.957 C218.545,14.9816667 218.538833,14.994 218.5265,14.994 C218.514167,14.994 218.508,15.0063333 218.508,15.031 L218.508,15.031 L209.184,28.388 C208.394667,29.5226667 208,30.793 208,32.199 L208,32.199 L208,33.901 C208,34.4683333 208.209667,34.9616667 208.629,35.381 C209.048333,35.8003333 209.541667,36.01 210.109,36.01 L210.109,36.01 L225.131,36.01 Z" id="Z-Copy-6" fill="#000000" fill-rule="nonzero"></path>
            <path d="M265.391,36.01 C265.958333,36.01 266.451667,35.8003333 266.871,35.381 C267.290333,34.9616667 267.5,34.4683333 267.5,33.901 L267.5,33.901 L267.5,32.014 C267.5,31.4466667 267.290333,30.9533333 266.871,30.534 C266.451667,30.1146667 265.958333,29.905 265.391,29.905 L265.391,29.905 L256.918,29.905 C256.696,29.905 256.585,29.794 256.585,29.572 L256.585,29.572 L256.585,11.109 C256.585,10.5416667 256.375333,10.0483333 255.956,9.629 C255.536667,9.20966667 255.043333,9 254.476,9 L254.476,9 L251.109,9 C250.541667,9 250.048333,9.20966667 249.629,9.629 C249.209667,10.0483333 249,10.5416667 249,11.109 L249,11.109 L249,33.901 C249,34.4683333 249.209667,34.9616667 249.629,35.381 C250.048333,35.8003333 250.541667,36.01 251.109,36.01 L251.109,36.01 L265.391,36.01 Z" id="L-Copy-3" fill="#000000" fill-rule="nonzero"></path>
            <path d="M303.651,36.01 C304.218333,36.01 304.711667,35.8003333 305.131,35.381 C305.550333,34.9616667 305.76,34.4683333 305.76,33.901 L305.76,33.901 L305.76,32.199 C305.76,31.6316667 305.550333,31.1383333 305.131,30.719 C304.711667,30.2996667 304.218333,30.09 303.651,30.09 L303.651,30.09 L295.733,30.09 C295.511,30.09 295.4,29.979 295.4,29.757 L295.4,29.757 L295.4,25.206 C295.4,25.0086667 295.511,24.91 295.733,24.91 L295.733,24.91 L302.911,24.91 C303.478333,24.91 303.971667,24.7003333 304.391,24.281 C304.810333,23.8616667 305.02,23.3683333 305.02,22.801 L305.02,22.801 L305.02,21.469 C305.02,20.9016667 304.810333,20.4083333 304.391,19.989 C303.971667,19.5696667 303.478333,19.36 302.911,19.36 L302.911,19.36 L295.733,19.36 C295.511,19.36 295.4,19.249 295.4,19.027 L295.4,19.027 L295.4,15.216 C295.4,15.0186667 295.511,14.92 295.733,14.92 L295.733,14.92 L303.651,14.92 C304.218333,14.92 304.711667,14.7103333 305.131,14.291 C305.550333,13.8716667 305.76,13.3783333 305.76,12.811 L305.76,12.811 L305.76,11.109 C305.76,10.5416667 305.550333,10.0483333 305.131,9.629 C304.711667,9.20966667 304.218333,9 303.651,9 L303.651,9 L290.109,9 C289.541667,9 289.048333,9.20966667 288.629,9.629 C288.209667,10.0483333 288,10.5416667 288,11.109 L288,11.109 L288,33.901 C288,34.4683333 288.209667,34.9616667 288.629,35.381 C289.048333,35.8003333 289.541667,36.01 290.109,36.01 L290.109,36.01 L303.651,36.01 Z" id="E-Copy-3" fill="#000000" fill-rule="nonzero"></path>
            <path d="M334.695,36.75 C341.725,36.75 345.24,34.0366667 345.24,28.61 C345.24,26.2666667 344.561667,24.392 343.205,22.986 C341.848333,21.58 339.443333,20.3713333 335.99,19.36 C334.337333,18.8666667 333.511,18.0033333 333.511,16.77 C333.511,15.364 334.522333,14.661 336.545,14.661 C338.345667,14.661 340.343667,15.0186667 342.539,15.734 C343.032333,15.9066667 343.4825,15.8511667 343.8895,15.5675 C344.2965,15.2838333 344.5,14.8953333 344.5,14.402 L344.5,14.402 L344.5,12.589 C344.5,11.9476667 344.315,11.3618333 343.945,10.8315 C343.575,10.3011667 343.094,9.94966667 342.502,9.777 C340.652,9.259 338.543,9 336.175,9 C332.869667,9 330.3475,9.69066667 328.6085,11.072 C326.8695,12.4533333 326,14.3526667 326,16.77 C326,19.0146667 326.7215,20.8955 328.1645,22.4125 C329.6075,23.9295 331.969333,25.1936667 335.25,26.205 C336.162667,26.501 336.791667,26.834 337.137,27.204 C337.482333,27.574 337.655,28.1043333 337.655,28.795 C337.655,30.275 336.545,31.015 334.325,31.015 C332.425667,31.015 330.501667,30.5586667 328.553,29.646 C328.133667,29.4486667 327.726667,29.461 327.332,29.683 C326.937333,29.905 326.74,30.2503333 326.74,30.719 L326.74,30.719 L326.74,32.606 C326.74,33.272 326.9065,33.8886667 327.2395,34.456 C327.5725,35.0233333 328.022667,35.418 328.59,35.64 C330.415333,36.38 332.450333,36.75 334.695,36.75 Z" id="S-Copy-3" fill="#000000" fill-rule="nonzero"></path>
            <rect id="Rectangle-Copy-70" fill="#000000" x="4" y="4" width="78" height="37"></rect>
            <rect id="Rectangle-Copy-77" fill="#000000" x="120" y="4" width="1" height="37"></rect>
            <rect id="Rectangle-Copy-77" fill="#FFFFFF" x="41" y="4" width="1" height="37"></rect>
            <rect id="Rectangle-Copy-78" fill="#000000" x="159" y="4" width="1" height="37"></rect>
            <rect id="Rectangle-Copy-79" fill="#000000" x="198" y="4" width="1" height="37"></rect>
            <rect id="Rectangle-Copy-80" fill="#000000" x="237" y="4" width="1" height="37"></rect>
            <rect id="Rectangle-Copy-81" fill="#000000" x="276" y="4" width="1" height="37"></rect>
            <rect id="Rectangle-Copy-82" fill="#000000" x="315" y="4" width="1" height="37"></rect>
            <path d="M28.761,36.01 C29.3283333,36.01 29.8216667,35.8003333 30.241,35.381 C30.6603333,34.9616667 30.87,34.4683333 30.87,33.901 L30.87,33.901 L30.87,31.533 C30.87,31.311 30.9686667,31.2 31.166,31.2 L31.166,31.2 L32.461,31.2 C33.0283333,31.2 33.5216667,30.9903333 33.941,30.571 C34.3603333,30.1516667 34.57,29.6583333 34.57,29.091 L34.57,29.091 L34.57,27.574 C34.57,27.0066667 34.3603333,26.5133333 33.941,26.094 C33.5216667,25.6746667 33.0283333,25.465 32.461,25.465 L32.461,25.465 L31.166,25.465 C30.9686667,25.465 30.87,25.354 30.87,25.132 L30.87,25.132 L30.87,11.109 C30.87,10.5416667 30.6603333,10.0483333 30.241,9.629 C29.8216667,9.20966667 29.3283333,9 28.761,9 L28.761,9 L25.949,9 C24.543,9 23.433,9.56733333 22.619,10.702 L22.619,10.702 L13.221,23.763 C12.407,24.9223333 12,26.1926667 12,27.574 L12,27.574 L12,29.091 C12,29.6583333 12.2096667,30.1516667 12.629,30.571 C13.0483333,30.9903333 13.5416667,31.2 14.109,31.2 L14.109,31.2 L23.507,31.2 C23.729,31.2 23.84,31.311 23.84,31.533 L23.84,31.533 L23.84,33.901 C23.84,34.4683333 24.0496667,34.9616667 24.469,35.381 C24.8883333,35.8003333 25.3816667,36.01 25.949,36.01 L25.949,36.01 L28.761,36.01 Z M23.507,25.465 L18.327,25.465 C18.3023333,25.465 18.29,25.4526667 18.29,25.428 L18.29,25.428 L18.29,25.391 L18.327,25.354 L23.729,17.547 C23.729,17.5223333 23.7536667,17.51 23.803,17.51 C23.8276667,17.51 23.84,17.5223333 23.84,17.547 L23.84,17.547 L23.84,25.132 C23.84,25.354 23.729,25.465 23.507,25.465 L23.507,25.465 Z" id="4-copy-3" fill="#FFFFFF" fill-rule="nonzero"></path>
            <path d="M69.696,36 C70.2633333,36 70.7566667,35.7903333 71.176,35.371 C71.5953333,34.9516667 71.805,34.4583333 71.805,33.891 L71.805,33.891 L71.805,32.189 C71.805,31.6216667 71.5953333,31.1283333 71.176,30.709 C70.7566667,30.2896667 70.2633333,30.08 69.696,30.08 L69.696,30.08 L62.222,30.08 C62.1973333,30.08 62.185,30.0676667 62.185,30.043 C62.185,30.0183333 62.1973333,29.9936667 62.222,29.969 C65.9466667,26.8363333 68.4441667,24.3573333 69.7145,22.532 C70.9848333,20.7066667 71.62,18.7826667 71.62,16.76 C71.62,14.2193333 70.7875,12.2275 69.1225,10.7845 C67.4575,9.3415 65.0833333,8.62 62,8.62 C59.8293333,8.62 57.5353333,8.916 55.118,9.508 C54.526,9.656 54.045,9.98283333 53.675,10.4885 C53.305,10.9941667 53.12,11.5676667 53.12,12.209 L53.12,12.209 L53.12,14.651 C53.12,15.1443333 53.3296667,15.5328333 53.749,15.8165 C54.1683333,16.1001667 54.6246667,16.1556667 55.118,15.983 C57.486,15.1443333 59.41,14.725 60.89,14.725 C62.9866667,14.725 64.035,15.65 64.035,17.5 C64.035,18.9553333 63.4183333,20.4291667 62.185,21.9215 C60.9516667,23.4138333 58.3,25.714 54.23,28.822 C53.12,29.6853333 52.565,30.8076667 52.565,32.189 L52.565,32.189 L52.565,33.891 C52.565,34.4583333 52.7746667,34.9516667 53.194,35.371 C53.6133333,35.7903333 54.1066667,36 54.674,36 L54.674,36 L69.696,36 Z" id="2-copy-3" fill="#FFFFFF" fill-rule="nonzero"></path>
        </g>
    </g>
</svg>